<?xml version="1.0" standalone="no"?>
<!DOCTYPE svg PUBLIC "-//W3C//DTD SVG 20010904//EN"
 "http://www.w3.org/TR/2001/REC-SVG-20010904/DTD/svg10.dtd">
<svg version="1.0" xmlns="http://www.w3.org/2000/svg"
 width="512.000000pt" height="512.000000pt" viewBox="0 0 512.000000 512.000000"
 preserveAspectRatio="xMidYMid meet">

<g transform="translate(0.000000,512.000000) scale(0.100000,-0.100000)"
fill="#000000" stroke="none">
<path d="M361 5104 c-169 -45 -301 -180 -346 -351 -22 -85 -22 -1581 0 -1666
45 -173 178 -307 350 -352 89 -23 1581 -23 1670 0 178 47 321 197 355 374 6
34 10 341 10 820 0 656 -2 775 -15 826 -45 172 -179 305 -352 350 -84 22
-1590 21 -1672 -1z"/>
<path d="M3081 5104 c-169 -45 -301 -180 -346 -351 -22 -85 -22 -1581 0 -1666
45 -173 178 -307 350 -352 89 -23 1581 -23 1670 0 178 47 321 197 355 374 6
34 10 341 10 820 0 656 -2 775 -15 826 -45 172 -179 305 -352 350 -84 22
-1590 21 -1672 -1z"/>
<path d="M361 2384 c-169 -45 -301 -180 -346 -351 -22 -85 -22 -1581 0 -1666
45 -173 178 -307 350 -352 89 -23 1581 -23 1670 0 178 47 321 197 355 374 6
34 10 341 10 820 0 656 -2 775 -15 826 -45 172 -179 305 -352 350 -84 22
-1590 21 -1672 -1z"/>
<path d="M3081 2384 c-169 -45 -301 -180 -346 -351 -22 -85 -22 -1581 0 -1666
45 -173 178 -307 350 -352 89 -23 1581 -23 1670 0 178 47 321 197 355 374 6
34 10 341 10 820 0 656 -2 775 -15 826 -45 172 -179 305 -352 350 -84 22
-1590 21 -1672 -1z"/>
</g>
</svg>
