<?xml version="1.0" standalone="no"?>
<!DOCTYPE svg PUBLIC "-//W3C//DTD SVG 20010904//EN"
 "http://www.w3.org/TR/2001/REC-SVG-20010904/DTD/svg10.dtd">
<svg version="1.0" xmlns="http://www.w3.org/2000/svg"
 width="512.000000pt" height="512.000000pt" viewBox="0 0 512.000000 512.000000"
 preserveAspectRatio="xMidYMid meet">

<g transform="translate(0.000000,512.000000) scale(0.100000,-0.100000)"
fill="#000000" stroke="none">
<path d="M735 4627 c-95 -44 -124 -170 -58 -248 36 -43 80 -59 156 -59 35 0
84 -7 109 -16 83 -28 154 -106 172 -189 4 -16 80 -544 170 -1172 158 -1096
165 -1144 196 -1207 58 -122 181 -214 315 -236 36 -6 439 -10 1020 -10 1058 0
1028 -1 1149 62 81 43 185 147 224 224 34 67 57 144 67 219 3 28 56 354 117
725 104 635 110 679 100 746 -5 39 -21 97 -35 128 -51 112 -174 210 -295 235
-37 8 -441 11 -1357 11 -718 0 -1305 2 -1305 4 0 34 -55 348 -70 396 -49 164
-196 311 -370 370 -83 28 -259 38 -305 17z m2534 -1537 c78 -39 109 -148 63
-222 -12 -18 -155 -166 -319 -329 -320 -319 -332 -327 -416 -314 -38 6 -59 24
-210 174 -93 91 -175 179 -184 195 -53 100 24 226 139 226 66 0 88 -14 193
-119 l90 -91 235 234 c129 129 249 241 265 250 41 21 98 20 144 -4z"/>
<path d="M1842 892 c-71 -26 -121 -68 -155 -133 -26 -48 -28 -62 -25 -130 2
-63 8 -84 33 -125 110 -178 366 -169 463 15 44 85 44 153 2 238 -61 122 -195
178 -318 135z"/>
<path d="M3575 901 c-47 -12 -107 -46 -137 -78 -94 -98 -90 -283 8 -375 76
-71 207 -93 297 -49 86 42 157 150 157 241 0 89 -71 199 -153 239 -48 23 -128
33 -172 22z"/>
</g>
</svg>
