<?xml version="1.0" standalone="no"?>
<!DOCTYPE svg PUBLIC "-//W3C//DTD SVG 20010904//EN"
 "http://www.w3.org/TR/2001/REC-SVG-20010904/DTD/svg10.dtd">
<svg version="1.0" xmlns="http://www.w3.org/2000/svg"
 width="512.000000pt" height="512.000000pt" viewBox="0 0 512.000000 512.000000"
 preserveAspectRatio="xMidYMid meet">

<g transform="translate(0.000000,512.000000) scale(0.100000,-0.100000)"
fill="#000000" stroke="none">
<path d="M2033 4670 c-52 -12 -97 -44 -120 -86 l-23 -39 0 -1984 0 -1984 24
-41 c14 -23 42 -51 64 -64 l41 -22 549 2 549 3 36 28 c20 15 45 42 55 60 16
30 17 148 20 1996 1 1410 -1 1975 -9 2004 -16 61 -72 112 -137 126 -60 13
-995 14 -1049 1z"/>
<path d="M105 3211 c-48 -22 -69 -44 -90 -94 -13 -32 -15 -183 -15 -1279 0
-1192 1 -1245 19 -1284 10 -23 36 -54 57 -70 l37 -29 536 -3 c357 -2 548 0
572 8 46 13 106 78 114 122 3 18 4 596 3 1284 l-3 1251 -29 37 c-58 77 -45 76
-636 76 -488 0 -528 -2 -565 -19z"/>
<path d="M3884 2401 c-23 -10 -54 -36 -70 -57 l-29 -37 0 -872 0 -871 25 -37
c13 -20 43 -46 65 -59 l40 -23 535 0 c517 0 536 1 569 20 19 11 48 37 65 58
l31 39 3 846 c2 571 0 859 -7 883 -15 51 -48 88 -95 110 -38 17 -76 19 -566
19 -491 0 -528 -2 -566 -19z"/>
</g>
</svg>
